<svg width="230" height="46" viewBox="0 0 230 46" fill="none" xmlns="http://www.w3.org/2000/svg">
<circle cx="225" cy="5" r="5" fill="#09B850"/>
<circle cx="145" cy="5" r="5" fill="#09B850"/>
<circle cx="165" cy="5" r="5" fill="#09B850"/>
<circle cx="185" cy="5" r="5" fill="#09B850"/>
<circle cx="205" cy="5" r="5" fill="#09B850"/>
<circle cx="225" cy="23" r="5" fill="#09B850"/>
<circle cx="145" cy="23" r="5" fill="#09B850"/>
<circle cx="165" cy="23" r="5" fill="#09B850"/>
<circle cx="185" cy="23" r="5" fill="#09B850"/>
<circle cx="205" cy="23" r="5" fill="#09B850"/>
<circle cx="125" cy="5" r="5" fill="#09B850"/>
<circle cx="45" cy="5" r="5" fill="#09B850"/>
<circle cx="65" cy="5" r="5" fill="#09B850"/>
<circle cx="85" cy="5" r="5" fill="#09B850"/>
<circle cx="105" cy="5" r="5" fill="#09B850"/>
<circle cx="225" cy="41" r="5" fill="#09B850"/>
<circle cx="145" cy="41" r="5" fill="#09B850"/>
<circle cx="165" cy="41" r="5" fill="#09B850"/>
<circle cx="185" cy="41" r="5" fill="#09B850"/>
<circle cx="205" cy="41" r="5" fill="#09B850"/>
<circle cx="25" cy="5" r="5" fill="#09B850"/>
<circle cx="5" cy="5" r="5" fill="#09B850"/>
<circle cx="125" cy="23" r="5" fill="#09B850"/>
<circle cx="45" cy="23" r="5" fill="#09B850"/>
<circle cx="65" cy="23" r="5" fill="#09B850"/>
<circle cx="85" cy="23" r="5" fill="#09B850"/>
<circle cx="105" cy="23" r="5" fill="#09B850"/>
</svg>
